<mxfile host="Electron" modified="2023-09-23T08:43:36.052Z" agent="Mozilla/5.0 (Windows NT 10.0; Win64; x64) AppleWebKit/537.36 (KHTML, like Gecko) draw.io/21.7.5 Chrome/114.0.5735.289 Electron/25.8.1 Safari/537.36" etag="AVS2GeSLYaMmzZawwlyg" version="21.7.5" type="device">
  <diagram name="第 1 页" id="1oMsVFiBbRYVfmmcZz7F">
    <mxGraphModel dx="1860" dy="1782" grid="1" gridSize="10" guides="1" tooltips="1" connect="1" arrows="1" fold="1" page="1" pageScale="1" pageWidth="827" pageHeight="1169" math="0" shadow="0">
      <root>
        <mxCell id="0" />
        <mxCell id="1" parent="0" />
        <mxCell id="WKDUcWwEk6MKSs-sOUGf-8" value="" style="edgeStyle=orthogonalEdgeStyle;rounded=0;orthogonalLoop=1;jettySize=auto;html=1;" edge="1" parent="1" source="WKDUcWwEk6MKSs-sOUGf-6" target="WKDUcWwEk6MKSs-sOUGf-7">
          <mxGeometry relative="1" as="geometry" />
        </mxCell>
        <mxCell id="WKDUcWwEk6MKSs-sOUGf-6" value="宏定义与头文件处理" style="rounded=0;whiteSpace=wrap;html=1;" vertex="1" parent="1">
          <mxGeometry x="-275" y="-1160" width="70" height="30" as="geometry" />
        </mxCell>
        <mxCell id="WKDUcWwEk6MKSs-sOUGf-10" value="" style="edgeStyle=orthogonalEdgeStyle;rounded=0;orthogonalLoop=1;jettySize=auto;html=1;" edge="1" parent="1" source="WKDUcWwEk6MKSs-sOUGf-7" target="WKDUcWwEk6MKSs-sOUGf-9">
          <mxGeometry relative="1" as="geometry" />
        </mxCell>
        <mxCell id="WKDUcWwEk6MKSs-sOUGf-7" value="读取单词" style="rounded=0;whiteSpace=wrap;html=1;" vertex="1" parent="1">
          <mxGeometry x="-275" y="-1100" width="70" height="30" as="geometry" />
        </mxCell>
        <mxCell id="WKDUcWwEk6MKSs-sOUGf-12" value="" style="edgeStyle=orthogonalEdgeStyle;rounded=0;orthogonalLoop=1;jettySize=auto;html=1;exitX=0;exitY=0.5;exitDx=0;exitDy=0;" edge="1" parent="1" source="WKDUcWwEk6MKSs-sOUGf-9" target="WKDUcWwEk6MKSs-sOUGf-11">
          <mxGeometry relative="1" as="geometry">
            <mxPoint x="-280" y="-990" as="sourcePoint" />
            <Array as="points">
              <mxPoint x="-365" y="-1020" />
            </Array>
          </mxGeometry>
        </mxCell>
        <mxCell id="WKDUcWwEk6MKSs-sOUGf-24" value="" style="edgeStyle=orthogonalEdgeStyle;rounded=0;orthogonalLoop=1;jettySize=auto;html=1;" edge="1" parent="1" target="WKDUcWwEk6MKSs-sOUGf-23">
          <mxGeometry relative="1" as="geometry">
            <mxPoint x="-230" y="-1020" as="sourcePoint" />
          </mxGeometry>
        </mxCell>
        <mxCell id="WKDUcWwEk6MKSs-sOUGf-31" style="edgeStyle=orthogonalEdgeStyle;rounded=0;orthogonalLoop=1;jettySize=auto;html=1;exitX=0.5;exitY=1;exitDx=0;exitDy=0;" edge="1" parent="1" source="WKDUcWwEk6MKSs-sOUGf-9">
          <mxGeometry relative="1" as="geometry">
            <mxPoint x="-240" y="-800.0000000000001" as="targetPoint" />
          </mxGeometry>
        </mxCell>
        <mxCell id="WKDUcWwEk6MKSs-sOUGf-9" value="关键字？" style="rhombus;whiteSpace=wrap;html=1;rounded=0;" vertex="1" parent="1">
          <mxGeometry x="-280" y="-1040" width="80" height="40" as="geometry" />
        </mxCell>
        <mxCell id="WKDUcWwEk6MKSs-sOUGf-15" value="" style="edgeStyle=orthogonalEdgeStyle;rounded=0;orthogonalLoop=1;jettySize=auto;html=1;" edge="1" parent="1" source="WKDUcWwEk6MKSs-sOUGf-11" target="WKDUcWwEk6MKSs-sOUGf-14">
          <mxGeometry relative="1" as="geometry" />
        </mxCell>
        <mxCell id="WKDUcWwEk6MKSs-sOUGf-11" value="读取单词" style="rounded=0;whiteSpace=wrap;html=1;" vertex="1" parent="1">
          <mxGeometry x="-400" y="-1000" width="80" height="30" as="geometry" />
        </mxCell>
        <mxCell id="WKDUcWwEk6MKSs-sOUGf-13" value="define" style="text;html=1;align=center;verticalAlign=middle;resizable=0;points=[];autosize=1;strokeColor=none;fillColor=none;" vertex="1" parent="1">
          <mxGeometry x="-350" y="-1052" width="60" height="30" as="geometry" />
        </mxCell>
        <mxCell id="WKDUcWwEk6MKSs-sOUGf-17" value="" style="edgeStyle=orthogonalEdgeStyle;rounded=0;orthogonalLoop=1;jettySize=auto;html=1;" edge="1" parent="1" source="WKDUcWwEk6MKSs-sOUGf-14" target="WKDUcWwEk6MKSs-sOUGf-16">
          <mxGeometry relative="1" as="geometry" />
        </mxCell>
        <mxCell id="WKDUcWwEk6MKSs-sOUGf-33" style="edgeStyle=orthogonalEdgeStyle;rounded=0;orthogonalLoop=1;jettySize=auto;html=1;exitX=1;exitY=0.5;exitDx=0;exitDy=0;entryX=0.156;entryY=0.492;entryDx=0;entryDy=0;entryPerimeter=0;" edge="1" parent="1" source="WKDUcWwEk6MKSs-sOUGf-14" target="WKDUcWwEk6MKSs-sOUGf-26">
          <mxGeometry relative="1" as="geometry" />
        </mxCell>
        <mxCell id="WKDUcWwEk6MKSs-sOUGf-14" value="标识符？" style="rhombus;whiteSpace=wrap;html=1;rounded=0;" vertex="1" parent="1">
          <mxGeometry x="-400" y="-940" width="80" height="40" as="geometry" />
        </mxCell>
        <mxCell id="WKDUcWwEk6MKSs-sOUGf-19" value="" style="edgeStyle=orthogonalEdgeStyle;rounded=0;orthogonalLoop=1;jettySize=auto;html=1;" edge="1" parent="1" source="WKDUcWwEk6MKSs-sOUGf-16" target="WKDUcWwEk6MKSs-sOUGf-18">
          <mxGeometry relative="1" as="geometry" />
        </mxCell>
        <mxCell id="WKDUcWwEk6MKSs-sOUGf-16" value="存入结构数组，继续读取" style="whiteSpace=wrap;html=1;rounded=0;" vertex="1" parent="1">
          <mxGeometry x="-400" y="-860" width="80" height="30" as="geometry" />
        </mxCell>
        <mxCell id="WKDUcWwEk6MKSs-sOUGf-21" value="" style="edgeStyle=orthogonalEdgeStyle;rounded=0;orthogonalLoop=1;jettySize=auto;html=1;" edge="1" parent="1" source="WKDUcWwEk6MKSs-sOUGf-18" target="WKDUcWwEk6MKSs-sOUGf-20">
          <mxGeometry relative="1" as="geometry" />
        </mxCell>
        <mxCell id="WKDUcWwEk6MKSs-sOUGf-48" style="edgeStyle=orthogonalEdgeStyle;rounded=0;orthogonalLoop=1;jettySize=auto;html=1;exitX=1;exitY=0.5;exitDx=0;exitDy=0;" edge="1" parent="1" source="WKDUcWwEk6MKSs-sOUGf-18">
          <mxGeometry relative="1" as="geometry">
            <mxPoint x="-240" y="-850" as="targetPoint" />
            <Array as="points">
              <mxPoint x="-300" y="-780" />
              <mxPoint x="-300" y="-850" />
              <mxPoint x="-239" y="-850" />
              <mxPoint x="-239" y="-860" />
            </Array>
          </mxGeometry>
        </mxCell>
        <mxCell id="WKDUcWwEk6MKSs-sOUGf-18" value="常量？" style="rhombus;whiteSpace=wrap;html=1;rounded=0;" vertex="1" parent="1">
          <mxGeometry x="-400" y="-800" width="80" height="40" as="geometry" />
        </mxCell>
        <mxCell id="WKDUcWwEk6MKSs-sOUGf-62" style="edgeStyle=orthogonalEdgeStyle;rounded=0;orthogonalLoop=1;jettySize=auto;html=1;exitX=0.5;exitY=1;exitDx=0;exitDy=0;" edge="1" parent="1" source="WKDUcWwEk6MKSs-sOUGf-20">
          <mxGeometry relative="1" as="geometry">
            <mxPoint x="-260" y="-620" as="targetPoint" />
          </mxGeometry>
        </mxCell>
        <mxCell id="WKDUcWwEk6MKSs-sOUGf-20" value="存入结构数组" style="whiteSpace=wrap;html=1;rounded=0;" vertex="1" parent="1">
          <mxGeometry x="-400" y="-730" width="80" height="30" as="geometry" />
        </mxCell>
        <mxCell id="WKDUcWwEk6MKSs-sOUGf-22" value="Y" style="text;html=1;align=center;verticalAlign=middle;resizable=0;points=[];autosize=1;strokeColor=none;fillColor=none;" vertex="1" parent="1">
          <mxGeometry x="-360" y="-760" width="30" height="30" as="geometry" />
        </mxCell>
        <mxCell id="WKDUcWwEk6MKSs-sOUGf-27" value="" style="edgeStyle=orthogonalEdgeStyle;rounded=0;orthogonalLoop=1;jettySize=auto;html=1;" edge="1" parent="1" source="WKDUcWwEk6MKSs-sOUGf-23" target="WKDUcWwEk6MKSs-sOUGf-26">
          <mxGeometry relative="1" as="geometry" />
        </mxCell>
        <mxCell id="WKDUcWwEk6MKSs-sOUGf-23" value="读取单词" style="whiteSpace=wrap;html=1;rounded=0;" vertex="1" parent="1">
          <mxGeometry x="-165" y="-1000" width="85" height="30" as="geometry" />
        </mxCell>
        <mxCell id="WKDUcWwEk6MKSs-sOUGf-25" value="Include" style="text;html=1;align=center;verticalAlign=middle;resizable=0;points=[];autosize=1;strokeColor=none;fillColor=none;" vertex="1" parent="1">
          <mxGeometry x="-200" y="-1052" width="60" height="30" as="geometry" />
        </mxCell>
        <mxCell id="WKDUcWwEk6MKSs-sOUGf-37" value="" style="edgeStyle=orthogonalEdgeStyle;rounded=0;orthogonalLoop=1;jettySize=auto;html=1;exitX=0.5;exitY=1;exitDx=0;exitDy=0;" edge="1" parent="1" source="WKDUcWwEk6MKSs-sOUGf-26" target="WKDUcWwEk6MKSs-sOUGf-36">
          <mxGeometry relative="1" as="geometry">
            <mxPoint x="-132.5" y="-899.9999999999999" as="sourcePoint" />
            <Array as="points">
              <mxPoint x="-122" y="-890" />
              <mxPoint x="-165" y="-890" />
            </Array>
          </mxGeometry>
        </mxCell>
        <mxCell id="WKDUcWwEk6MKSs-sOUGf-42" value="" style="edgeStyle=orthogonalEdgeStyle;rounded=0;orthogonalLoop=1;jettySize=auto;html=1;" edge="1" parent="1" source="WKDUcWwEk6MKSs-sOUGf-26" target="WKDUcWwEk6MKSs-sOUGf-40">
          <mxGeometry relative="1" as="geometry" />
        </mxCell>
        <mxCell id="WKDUcWwEk6MKSs-sOUGf-26" value="&amp;lt; or 字符串？" style="rhombus;whiteSpace=wrap;html=1;rounded=0;" vertex="1" parent="1">
          <mxGeometry x="-162.5" y="-940" width="80" height="40" as="geometry" />
        </mxCell>
        <mxCell id="WKDUcWwEk6MKSs-sOUGf-32" value="ERROR" style="rounded=0;whiteSpace=wrap;html=1;" vertex="1" parent="1">
          <mxGeometry x="-280" y="-800" width="80" height="30" as="geometry" />
        </mxCell>
        <mxCell id="WKDUcWwEk6MKSs-sOUGf-34" value="N" style="text;html=1;align=center;verticalAlign=middle;resizable=0;points=[];autosize=1;strokeColor=none;fillColor=none;" vertex="1" parent="1">
          <mxGeometry x="-325" y="-942" width="30" height="30" as="geometry" />
        </mxCell>
        <mxCell id="WKDUcWwEk6MKSs-sOUGf-35" value="Y" style="text;html=1;align=center;verticalAlign=middle;resizable=0;points=[];autosize=1;strokeColor=none;fillColor=none;" vertex="1" parent="1">
          <mxGeometry x="-355" y="-902" width="30" height="30" as="geometry" />
        </mxCell>
        <mxCell id="WKDUcWwEk6MKSs-sOUGf-45" style="edgeStyle=orthogonalEdgeStyle;rounded=0;orthogonalLoop=1;jettySize=auto;html=1;" edge="1" parent="1" source="WKDUcWwEk6MKSs-sOUGf-36">
          <mxGeometry relative="1" as="geometry">
            <mxPoint x="-165" y="-830.0000000000001" as="targetPoint" />
            <Array as="points">
              <mxPoint x="-165" y="-830" />
            </Array>
          </mxGeometry>
        </mxCell>
        <mxCell id="WKDUcWwEk6MKSs-sOUGf-47" value="" style="edgeStyle=orthogonalEdgeStyle;rounded=0;orthogonalLoop=1;jettySize=auto;html=1;" edge="1" parent="1" source="WKDUcWwEk6MKSs-sOUGf-36" target="WKDUcWwEk6MKSs-sOUGf-46">
          <mxGeometry relative="1" as="geometry" />
        </mxCell>
        <mxCell id="WKDUcWwEk6MKSs-sOUGf-36" value="读取单词" style="whiteSpace=wrap;html=1;rounded=0;" vertex="1" parent="1">
          <mxGeometry x="-200" y="-880" width="70" height="30" as="geometry" />
        </mxCell>
        <mxCell id="WKDUcWwEk6MKSs-sOUGf-38" value="&amp;lt;" style="text;html=1;align=center;verticalAlign=middle;resizable=0;points=[];autosize=1;strokeColor=none;fillColor=none;" vertex="1" parent="1">
          <mxGeometry x="-170" y="-912" width="30" height="30" as="geometry" />
        </mxCell>
        <mxCell id="WKDUcWwEk6MKSs-sOUGf-58" style="edgeStyle=orthogonalEdgeStyle;rounded=0;orthogonalLoop=1;jettySize=auto;html=1;exitX=0.5;exitY=1;exitDx=0;exitDy=0;" edge="1" parent="1" source="WKDUcWwEk6MKSs-sOUGf-40">
          <mxGeometry relative="1" as="geometry">
            <mxPoint x="-260" y="-610" as="targetPoint" />
            <Array as="points">
              <mxPoint x="-60" y="-660" />
              <mxPoint x="-260" y="-660" />
            </Array>
          </mxGeometry>
        </mxCell>
        <mxCell id="WKDUcWwEk6MKSs-sOUGf-40" value="存入结构数组" style="whiteSpace=wrap;html=1;rounded=0;" vertex="1" parent="1">
          <mxGeometry x="-100" y="-840" width="80" height="30" as="geometry" />
        </mxCell>
        <mxCell id="WKDUcWwEk6MKSs-sOUGf-43" value="字符串" style="text;html=1;align=center;verticalAlign=middle;resizable=0;points=[];autosize=1;strokeColor=none;fillColor=none;" vertex="1" parent="1">
          <mxGeometry x="-120" y="-890" width="60" height="30" as="geometry" />
        </mxCell>
        <mxCell id="WKDUcWwEk6MKSs-sOUGf-49" style="edgeStyle=orthogonalEdgeStyle;rounded=0;orthogonalLoop=1;jettySize=auto;html=1;exitX=0;exitY=0.5;exitDx=0;exitDy=0;" edge="1" parent="1" source="WKDUcWwEk6MKSs-sOUGf-46">
          <mxGeometry relative="1" as="geometry">
            <mxPoint x="-240" y="-850" as="targetPoint" />
            <Array as="points">
              <mxPoint x="-205" y="-850" />
              <mxPoint x="-239" y="-850" />
              <mxPoint x="-239" y="-860" />
            </Array>
          </mxGeometry>
        </mxCell>
        <mxCell id="WKDUcWwEk6MKSs-sOUGf-52" value="" style="edgeStyle=orthogonalEdgeStyle;rounded=0;orthogonalLoop=1;jettySize=auto;html=1;" edge="1" parent="1" source="WKDUcWwEk6MKSs-sOUGf-46" target="WKDUcWwEk6MKSs-sOUGf-51">
          <mxGeometry relative="1" as="geometry" />
        </mxCell>
        <mxCell id="WKDUcWwEk6MKSs-sOUGf-46" value="头文件？" style="rhombus;whiteSpace=wrap;html=1;rounded=0;" vertex="1" parent="1">
          <mxGeometry x="-205" y="-830" width="80" height="30" as="geometry" />
        </mxCell>
        <mxCell id="WKDUcWwEk6MKSs-sOUGf-50" value="N" style="text;html=1;align=center;verticalAlign=middle;resizable=0;points=[];autosize=1;strokeColor=none;fillColor=none;" vertex="1" parent="1">
          <mxGeometry x="-230" y="-850" width="30" height="30" as="geometry" />
        </mxCell>
        <mxCell id="WKDUcWwEk6MKSs-sOUGf-55" value="" style="edgeStyle=orthogonalEdgeStyle;rounded=0;orthogonalLoop=1;jettySize=auto;html=1;" edge="1" parent="1" source="WKDUcWwEk6MKSs-sOUGf-51" target="WKDUcWwEk6MKSs-sOUGf-54">
          <mxGeometry relative="1" as="geometry" />
        </mxCell>
        <mxCell id="WKDUcWwEk6MKSs-sOUGf-51" value="读取单词" style="whiteSpace=wrap;html=1;rounded=0;" vertex="1" parent="1">
          <mxGeometry x="-205" y="-760" width="80" height="30" as="geometry" />
        </mxCell>
        <mxCell id="WKDUcWwEk6MKSs-sOUGf-53" value="Y" style="text;html=1;align=center;verticalAlign=middle;resizable=0;points=[];autosize=1;strokeColor=none;fillColor=none;" vertex="1" parent="1">
          <mxGeometry x="-165" y="-802" width="30" height="30" as="geometry" />
        </mxCell>
        <mxCell id="WKDUcWwEk6MKSs-sOUGf-56" style="edgeStyle=orthogonalEdgeStyle;rounded=0;orthogonalLoop=1;jettySize=auto;html=1;exitX=0.118;exitY=0.501;exitDx=0;exitDy=0;entryX=0.75;entryY=1;entryDx=0;entryDy=0;exitPerimeter=0;" edge="1" parent="1" source="WKDUcWwEk6MKSs-sOUGf-54" target="WKDUcWwEk6MKSs-sOUGf-32">
          <mxGeometry relative="1" as="geometry">
            <mxPoint x="-207.5" y="-680" as="sourcePoint" />
            <mxPoint x="-242.5" y="-757.5000000000001" as="targetPoint" />
            <Array as="points">
              <mxPoint x="-210" y="-692" />
              <mxPoint x="-220" y="-692" />
            </Array>
          </mxGeometry>
        </mxCell>
        <mxCell id="WKDUcWwEk6MKSs-sOUGf-59" style="edgeStyle=orthogonalEdgeStyle;rounded=0;orthogonalLoop=1;jettySize=auto;html=1;exitX=0.5;exitY=1;exitDx=0;exitDy=0;" edge="1" parent="1" source="WKDUcWwEk6MKSs-sOUGf-54">
          <mxGeometry relative="1" as="geometry">
            <mxPoint x="-165" y="-660" as="targetPoint" />
          </mxGeometry>
        </mxCell>
        <mxCell id="WKDUcWwEk6MKSs-sOUGf-54" value="&amp;gt;?" style="rhombus;whiteSpace=wrap;html=1;rounded=0;" vertex="1" parent="1">
          <mxGeometry x="-205" y="-710" width="80" height="35" as="geometry" />
        </mxCell>
        <mxCell id="WKDUcWwEk6MKSs-sOUGf-57" value="N&lt;br&gt;" style="text;html=1;align=center;verticalAlign=middle;resizable=0;points=[];autosize=1;strokeColor=none;fillColor=none;" vertex="1" parent="1">
          <mxGeometry x="-230" y="-700" width="30" height="30" as="geometry" />
        </mxCell>
        <mxCell id="WKDUcWwEk6MKSs-sOUGf-61" value="Y" style="text;html=1;align=center;verticalAlign=middle;resizable=0;points=[];autosize=1;strokeColor=none;fillColor=none;" vertex="1" parent="1">
          <mxGeometry x="-195" y="-680" width="30" height="30" as="geometry" />
        </mxCell>
        <mxCell id="WKDUcWwEk6MKSs-sOUGf-65" value="" style="edgeStyle=orthogonalEdgeStyle;rounded=0;orthogonalLoop=1;jettySize=auto;html=1;" edge="1" parent="1" source="WKDUcWwEk6MKSs-sOUGf-63" target="WKDUcWwEk6MKSs-sOUGf-64">
          <mxGeometry relative="1" as="geometry" />
        </mxCell>
        <mxCell id="WKDUcWwEk6MKSs-sOUGf-63" value="读取单词" style="rounded=0;whiteSpace=wrap;html=1;" vertex="1" parent="1">
          <mxGeometry x="-300" y="-610" width="90" height="30" as="geometry" />
        </mxCell>
        <mxCell id="WKDUcWwEk6MKSs-sOUGf-67" value="" style="edgeStyle=orthogonalEdgeStyle;rounded=0;orthogonalLoop=1;jettySize=auto;html=1;" edge="1" parent="1" source="WKDUcWwEk6MKSs-sOUGf-64" target="WKDUcWwEk6MKSs-sOUGf-66">
          <mxGeometry relative="1" as="geometry" />
        </mxCell>
        <mxCell id="WKDUcWwEk6MKSs-sOUGf-69" style="edgeStyle=orthogonalEdgeStyle;rounded=0;orthogonalLoop=1;jettySize=auto;html=1;exitX=0;exitY=0.5;exitDx=0;exitDy=0;entryX=0.137;entryY=0.96;entryDx=0;entryDy=0;entryPerimeter=0;" edge="1" parent="1">
          <mxGeometry relative="1" as="geometry">
            <mxPoint x="-280" y="-528.8" as="sourcePoint" />
            <mxPoint x="-254.03999999999996" y="-770.0000000000001" as="targetPoint" />
            <Array as="points">
              <mxPoint x="-330" y="-529" />
              <mxPoint x="-330" y="-689" />
              <mxPoint x="-255" y="-689" />
              <mxPoint x="-255" y="-770" />
            </Array>
          </mxGeometry>
        </mxCell>
        <mxCell id="WKDUcWwEk6MKSs-sOUGf-64" value="; ?" style="rhombus;whiteSpace=wrap;html=1;rounded=0;" vertex="1" parent="1">
          <mxGeometry x="-295" y="-550" width="80" height="40" as="geometry" />
        </mxCell>
        <mxCell id="WKDUcWwEk6MKSs-sOUGf-66" value="流程" style="whiteSpace=wrap;html=1;rounded=0;" vertex="1" parent="1">
          <mxGeometry x="-290" y="-480" width="70" height="30" as="geometry" />
        </mxCell>
        <mxCell id="WKDUcWwEk6MKSs-sOUGf-68" value="Y" style="text;html=1;align=center;verticalAlign=middle;resizable=0;points=[];autosize=1;strokeColor=none;fillColor=none;" vertex="1" parent="1">
          <mxGeometry x="-265" y="-512" width="30" height="30" as="geometry" />
        </mxCell>
        <mxCell id="WKDUcWwEk6MKSs-sOUGf-71" value="N" style="text;html=1;align=center;verticalAlign=middle;resizable=0;points=[];autosize=1;strokeColor=none;fillColor=none;" vertex="1" parent="1">
          <mxGeometry x="-325" y="-552" width="30" height="30" as="geometry" />
        </mxCell>
        <mxCell id="WKDUcWwEk6MKSs-sOUGf-72" value="ELSE" style="text;html=1;align=center;verticalAlign=middle;resizable=0;points=[];autosize=1;strokeColor=none;fillColor=none;" vertex="1" parent="1">
          <mxGeometry x="-245" y="-1000" width="50" height="30" as="geometry" />
        </mxCell>
      </root>
    </mxGraphModel>
  </diagram>
</mxfile>
